<?xml version="1.0" encoding="UTF-8" standalone="no"?>
<!-- Generator: Adobe Illustrator 19.0.0, SVG Export Plug-In . SVG Version: 6.00 Build 0)  -->

<svg
   xmlns:dc="http://purl.org/dc/elements/1.1/"
   xmlns:cc="http://creativecommons.org/ns#"
   xmlns:rdf="http://www.w3.org/1999/02/22-rdf-syntax-ns#"
   xmlns:svg="http://www.w3.org/2000/svg"
   xmlns="http://www.w3.org/2000/svg"
   xmlns:sodipodi="http://sodipodi.sourceforge.net/DTD/sodipodi-0.dtd"
   xmlns:inkscape="http://www.inkscape.org/namespaces/inkscape"
   version="1.1"
   id="Capa_1"
   x="0px"
   y="0px"
   viewBox="0 0 511.988 511.988"
   style="enable-background:new 0 0 511.988 511.988;"
   xml:space="preserve"
   sodipodi:docname="coffee.svg"
   inkscape:version="0.92.1 r15371"><metadata
   id="metadata417"><rdf:RDF><cc:Work
       rdf:about=""><dc:format>image/svg+xml</dc:format><dc:type
         rdf:resource="http://purl.org/dc/dcmitype/StillImage" /></cc:Work></rdf:RDF></metadata><defs
   id="defs415" /><sodipodi:namedview
   pagecolor="#ffffff"
   bordercolor="#666666"
   borderopacity="1"
   objecttolerance="10"
   gridtolerance="10"
   guidetolerance="10"
   inkscape:pageopacity="0"
   inkscape:pageshadow="2"
   inkscape:window-width="1304"
   inkscape:window-height="745"
   id="namedview413"
   showgrid="false"
   inkscape:zoom="0.92189659"
   inkscape:cx="311.3138"
   inkscape:cy="247.51237"
   inkscape:window-x="-8"
   inkscape:window-y="-8"
   inkscape:window-maximized="1"
   inkscape:current-layer="Capa_1" />
<g
   id="g350">
	<g
   id="g348">
		<path
   d="M394.655,202.654H95.988c-17.643,0-32,14.357-32,32v21.333c0,76.117,42.048,145.152,109.717,180.16    c5.227,2.688,11.669,0.661,14.379-4.587c2.688-5.227,0.661-11.669-4.587-14.379c-60.544-31.317-98.176-93.077-98.176-161.195    v-21.333c0-5.888,4.779-10.667,10.667-10.667h298.667c5.888,0,10.667,4.779,10.667,10.667v21.333    c0,68.117-37.632,129.877-98.197,161.173c-5.248,2.709-7.275,9.152-4.587,14.379c1.899,3.669,5.632,5.781,9.493,5.781    c1.664,0,3.328-0.384,4.885-1.195c67.691-34.987,109.739-104,109.739-180.139v-21.333    C426.655,217.011,412.297,202.654,394.655,202.654z"
   id="path346" />
	</g>
</g>
<g
   id="g356">
	<g
   id="g354">
		<path
   d="M489.865,422.558c-1.664-3.989-5.547-6.592-9.856-6.592H10.676c-4.309,0-8.192,2.603-9.856,6.592    c-1.664,3.989-0.747,8.576,2.304,11.627l23.915,23.936c14.123,14.101,32.853,21.867,52.8,21.867h330.965    c19.947,0,38.699-7.765,52.843-21.867l23.915-23.936C490.612,431.134,491.529,426.547,489.865,422.558z M448.543,443.038    c-10.069,10.069-23.488,15.616-37.717,15.616H79.839c-14.229,0-27.648-5.547-37.717-15.616l-5.717-5.717H454.26L448.543,443.038z"
   id="path352" />
	</g>
</g>
<g
   id="g362">
	<g
   id="g360">
		<path
   d="M491.359,253.022c-28.736-18.475-74.645,1.579-79.787,3.904c-5.355,2.453-7.744,8.768-5.291,14.144    c2.453,5.376,8.747,7.744,14.144,5.291c10.283-4.672,43.264-15.744,59.392-5.355c7.275,4.672,10.837,13.739,10.837,27.648    c0,42.709-86.144,68.523-119.403,74.88l-7.552,1.493c-5.781,1.131-9.536,6.741-8.405,12.523c1.003,5.077,5.461,8.597,10.453,8.597    c0.683,0,1.365-0.064,2.069-0.213l7.488-1.472c5.589-1.067,136.683-26.773,136.683-95.808    C511.988,277.193,505.034,261.854,491.359,253.022z"
   id="path358" />
	</g>
</g>
<g
   id="g368">
	<g
   id="g366">
		<path
   d="M328.372,113.31c17.344-21.675,17.344-55.616,0-77.291c-3.691-4.608-10.368-5.376-14.997-1.664    c-4.608,3.691-5.355,10.389-1.664,14.997c10.987,13.717,10.987,36.907-0.021,50.667c-17.365,21.675-17.365,55.616,0,77.291    c2.112,2.645,5.205,4.011,8.341,4.011c2.325,0,4.693-0.768,6.656-2.347c4.608-3.691,5.355-10.411,1.664-14.997    C317.343,150.259,317.343,127.07,328.372,113.31z"
   id="path364" />
	</g>
</g>
<g
   id="g374">
	<g
   id="g372">
		<path
   d="M264.287,113.31c17.365-21.675,17.365-55.616,0-77.291c-3.669-4.608-10.389-5.355-14.997-1.664    c-4.608,3.691-5.355,10.411-1.664,14.997c11.008,13.717,11.008,36.907-0.021,50.667c-17.344,21.675-17.344,55.616,0,77.291    c2.112,2.645,5.205,4.011,8.341,4.011c2.325,0,4.672-0.768,6.656-2.347c4.608-3.691,5.355-10.389,1.664-14.997    C253.279,150.259,253.279,127.07,264.287,113.31z"
   id="path370" />
	</g>
</g>
<g
   id="g380">
	<g
   id="g378">
		<path
   d="M200.372,113.331c17.344-21.675,17.344-55.616,0-77.291c-3.669-4.608-10.368-5.376-14.997-1.664    c-4.587,3.669-5.333,10.389-1.664,14.976c10.987,13.717,10.987,36.907-0.021,50.667c-17.365,21.675-17.365,55.616,0,77.291    c2.112,2.645,5.205,4.011,8.341,4.011c2.325,0,4.693-0.768,6.656-2.325c4.608-3.691,5.355-10.411,1.664-14.997    C189.343,150.259,189.343,127.091,200.372,113.331z"
   id="path376" />
	</g>
</g>
<g
   id="g382">
</g>
<g
   id="g384">
</g>
<g
   id="g386">
</g>
<g
   id="g388">
</g>
<g
   id="g390">
</g>
<g
   id="g392">
</g>
<g
   id="g394">
</g>
<g
   id="g396">
</g>
<g
   id="g398">
</g>
<g
   id="g400">
</g>
<g
   id="g402">
</g>
<g
   id="g404">
</g>
<g
   id="g406">
</g>
<g
   id="g408">
</g>
<g
   id="g410">
</g>
<path
   style="opacity:1;vector-effect:none;fill:#ffffff;fill-opacity:1;stroke:#ffffff;stroke-width:1.08472037px;stroke-linecap:butt;stroke-linejoin:miter;stroke-miterlimit:4;stroke-dasharray:none;stroke-dashoffset:0;stroke-opacity:1"
   d="M 65.730937,478.08445 C 48.966598,474.71317 38.476973,468.39742 19.820958,450.44228 0.11024815,431.47207 -2.3878362,426.93182 3.2673508,420.3562 l 2.6174587,-3.04346 68.5838015,-0.54236 68.583799,-0.54236 -9.88056,-8.51786 C 104.13291,382.67623 80.731151,344.75768 71.149541,307.21362 66.432559,288.73086 65.51781,281.02428 64.96939,255.14705 c -0.512373,-24.17634 -0.419785,-25.80964 1.795375,-31.67091 3.086476,-8.16677 11.866965,-16.41592 19.985391,-18.77601 4.97841,-1.44727 24.628474,-1.61391 160.730214,-1.36307 l 155.05841,0.28577 5.01931,2.47294 c 6.27649,3.09235 12.17751,8.75551 15.2887,14.67246 1.99529,3.79471 2.46226,6.76434 2.81622,17.90932 0.37685,11.8652 0.62405,13.28148 2.20906,12.65596 6.46878,-2.55292 22.60523,-5.09515 32.69925,-5.15163 17.69603,-0.099 28.74182,3.96584 37.96411,13.97085 13.43389,14.57404 16.83527,41.21234 7.74319,60.64167 -13.7372,29.35573 -54.70505,53.91511 -115.94921,69.50918 l -18.71771,4.76593 -11.89162,10.57925 -11.89163,10.57926 67.98142,0.27941 67.98141,0.2794 3.03375,2.90652 c 2.34118,2.243 3.03628,3.9126 3.04487,7.31363 0.0109,4.26035 -0.55851,4.96706 -17.09351,21.22029 -18.6265,18.30907 -25.32645,23.00802 -39.86544,27.95931 l -8.67776,2.95522 -175.7247,0.18047 C 107.55488,479.46704 71.388229,479.22211 65.730937,478.08445 Z M 423.44043,457.4391 c 3.74015,-0.88182 9.18971,-2.81412 12.11011,-4.294 5.24617,-2.65844 18.51246,-14.02565 18.51246,-15.8624 0,-0.53812 -90.33307,-0.94841 -208.80867,-0.94841 -118.4756,0 -208.808666,0.41029 -208.808666,0.94841 0,2.01469 13.213573,13.0508 19.037152,15.9 12.139587,5.93936 4.358299,5.70153 189.229154,5.78348 148.08852,0.0656 172.8711,-0.14609 178.72846,-1.52708 z M 318.5581,411.23049 c 42.69351,-25.93086 72.91967,-68.71967 83.43911,-118.11823 2.54415,-11.94713 5.0863,-49.95175 3.87549,-57.93771 -0.5611,-3.70073 -1.74826,-6.2691 -3.88575,-8.40658 l -3.0778,-3.07781 H 245.25433 91.599522 l -3.294533,3.29453 -3.294534,3.29453 0.551567,25.72174 c 0.60053,28.00506 2.026442,37.63136 8.469673,57.17862 4.527136,13.73428 15.800315,36.21164 23.929235,47.71205 13.15195,18.60672 35.79634,39.47856 55.70186,51.34166 l 7.59304,4.52523 64.09059,0.005 64.0906,0.005 9.12108,-5.53988 z m 90.48901,-47.32866 c 32.15577,-10.28291 60.76294,-26.39366 72.06,-40.58217 7.83831,-9.8445 9.29618,-14.07995 9.27748,-26.95324 -0.0146,-10.05775 -0.34067,-12.02376 -2.78844,-16.81317 -6.92294,-13.5457 -22.78189,-16.61516 -49.70432,-9.62012 -5.67364,1.47414 -10.94583,3.20321 -11.71599,3.84238 -0.77016,0.63918 -1.40029,2.87151 -1.40029,4.96073 0,6.80211 -5.23286,29.85252 -9.75308,42.96163 -4.5609,13.2271 -12.74961,30.59557 -19.13524,40.58638 -2.00931,3.14371 -3.65329,5.98331 -3.65329,6.31024 0,0.66999 0.34299,0.57425 16.81317,-4.69266 z"
   id="path419"
   inkscape:connector-curvature="0" /><path
   style="opacity:1;vector-effect:none;fill:#ffffff;fill-opacity:1;stroke:#ffffff;stroke-width:1.08472037px;stroke-linecap:butt;stroke-linejoin:miter;stroke-miterlimit:4;stroke-dasharray:none;stroke-dashoffset:0;stroke-opacity:1"
   d="m 312.07498,176.46477 c -8.08966,-9.21361 -12.46736,-22.50673 -12.48954,-37.92516 -0.0201,-13.94248 2.72564,-23.15681 10.37313,-34.8114 8.17243,-12.454582 9.98736,-17.637746 10.03017,-28.644743 0.0406,-10.433494 -1.88153,-17.345251 -6.93804,-24.948568 -4.15678,-6.250423 -4.17973,-10.089863 -0.0848,-14.184805 3.58406,-3.58406 8.91527,-4.244241 12.72503,-1.575781 6.14676,4.305356 12.63983,18.875575 14.55818,32.668047 2.1125,15.188273 -1.50722,29.330396 -11.42654,44.64312 -7.45332,11.50589 -8.729,15.6035 -8.69804,27.93885 0.0252,10.05551 0.82775,12.51675 8.76633,26.88545 3.53796,6.40365 -1.47984,13.79156 -9.36711,13.79156 -3.31315,0 -4.71351,-0.72126 -7.44878,-3.83657 z"
   id="path421"
   inkscape:connector-curvature="0" /><path
   style="opacity:1;vector-effect:none;fill:#ffffff;fill-opacity:1;stroke:#ffffff;stroke-width:1.08472037px;stroke-linecap:butt;stroke-linejoin:miter;stroke-miterlimit:4;stroke-dasharray:none;stroke-dashoffset:0;stroke-opacity:1"
   d="m 247.91865,176.28502 c -7.10838,-8.09599 -12.93149,-25.09294 -12.93149,-37.74541 0,-12.41362 4.9422,-27.21342 12.54716,-37.57345 6.29124,-8.570389 8.37996,-15.156869 8.37996,-26.425053 0,-10.62272 -1.85752,-17.00777 -7.2231,-24.828758 -3.82986,-5.582492 -3.74642,-9.7396 0.27623,-13.762255 3.8041,-3.804093 9.2736,-4.24402 13.30819,-1.070414 2.90457,2.284737 8.60507,12.303681 11.25386,19.779293 4.17876,11.793557 3.95177,28.844628 -0.55466,41.666223 -1.20521,3.429051 -4.61782,9.936974 -7.58358,14.462044 -8.34646,12.7348 -9.2007,15.31362 -9.24819,27.91883 l -0.0415,11.01366 5.22842,10.18907 c 4.06903,7.92966 5.06428,10.84312 4.48817,13.13853 -1.04709,4.17192 -5.42033,7.25401 -10.29287,7.25401 -3.34757,0 -4.71343,-0.72118 -7.60661,-4.01632 z"
   id="path423"
   inkscape:connector-curvature="0" /><path
   style="opacity:1;vector-effect:none;fill:#ffffff;fill-opacity:1;stroke:#ffffff;stroke-width:1.08472037px;stroke-linecap:butt;stroke-linejoin:miter;stroke-miterlimit:4;stroke-dasharray:none;stroke-dashoffset:0;stroke-opacity:1"
   d="m 184.07798,176.46477 c -8.08966,-9.21361 -12.46736,-22.50673 -12.48954,-37.92516 -0.02,-13.94248 2.72564,-23.15681 10.37313,-34.8114 8.17243,-12.454582 9.98735,-17.637746 10.03017,-28.644743 0.0406,-10.433494 -1.88154,-17.345251 -6.93804,-24.948568 -4.15678,-6.250423 -4.17973,-10.089863 -0.0848,-14.184805 3.58406,-3.58406 8.91527,-4.244241 12.72503,-1.575781 6.00392,4.205308 12.61767,18.996011 14.54243,32.522011 2.13083,14.97423 -1.61077,29.660585 -11.41079,44.789156 -7.47017,11.53191 -8.72603,15.58845 -8.70915,28.13141 0.0131,9.74947 0.12108,10.16491 5.22842,20.11802 4.05767,7.90752 5.05075,10.81754 4.47477,13.11242 -1.04708,4.17192 -5.42032,7.25401 -10.29286,7.25401 -3.31315,0 -4.71351,-0.72126 -7.44878,-3.83657 z"
   id="path425"
   inkscape:connector-curvature="0" /></svg>