<?xml version="1.0" encoding="UTF-8" standalone="no"?>
<svg
   xmlns:dc="http://purl.org/dc/elements/1.1/"
   xmlns:cc="http://creativecommons.org/ns#"
   xmlns:rdf="http://www.w3.org/1999/02/22-rdf-syntax-ns#"
   xmlns:svg="http://www.w3.org/2000/svg"
   xmlns="http://www.w3.org/2000/svg"
   xmlns:sodipodi="http://sodipodi.sourceforge.net/DTD/sodipodi-0.dtd"
   xmlns:inkscape="http://www.inkscape.org/namespaces/inkscape"
   height="496pt"
   viewBox="0 -48 496 496"
   width="496pt"
   version="1.1"
   id="svg441"
   sodipodi:docname="course.svg"
   inkscape:version="0.92.1 r15371">
  <metadata
     id="metadata447">
    <rdf:RDF>
      <cc:Work
         rdf:about="">
        <dc:format>image/svg+xml</dc:format>
        <dc:type
           rdf:resource="http://purl.org/dc/dcmitype/StillImage" />
      </cc:Work>
    </rdf:RDF>
  </metadata>
  <defs
     id="defs445" />
  <sodipodi:namedview
     pagecolor="#ffffff"
     bordercolor="#666666"
     borderopacity="1"
     objecttolerance="10"
     gridtolerance="10"
     guidetolerance="10"
     inkscape:pageopacity="0"
     inkscape:pageshadow="2"
     inkscape:window-width="1304"
     inkscape:window-height="745"
     id="namedview443"
     showgrid="false"
     inkscape:zoom="0.71370968"
     inkscape:cx="61.447636"
     inkscape:cy="375.4262"
     inkscape:window-x="-8"
     inkscape:window-y="-8"
     inkscape:window-maximized="1"
     inkscape:current-layer="svg441" />
  <path
     d="m472 0h-448c-13.230469 0-24 10.769531-24 24v352c0 13.230469 10.769531 24 24 24h448c13.230469 0 24-10.769531 24-24v-352c0-13.230469-10.769531-24-24-24zm8 376c0 4.414062-3.59375 8-8 8h-448c-4.40625 0-8-3.585938-8-8v-352c0-4.40625 3.59375-8 8-8h448c4.40625 0 8 3.59375 8 8zm0 0"
     id="path427" />
  <path
     d="m448 32h-400v240h400zm-16 224h-368v-208h368zm0 0"
     id="path429" />
  <path
     d="m328 200.136719c0-17.761719-11.929688-33.578125-29.007812-38.464844l-26.992188-7.703125v-2.128906c9.96875-7.511719 16-19.328125 16-31.832032v-14.335937c0-21.503906-16.007812-39.726563-36.449219-41.503906-11.183593-.96875-22.34375 2.800781-30.574219 10.351562-8.25 7.550781-12.976562 18.304688-12.976562 29.480469v16c0 12.503906 6.03125 24.328125 16 31.832031v2.128907l-26.992188 7.710937c-17.078124 4.886719-29.007812 20.703125-29.007812 38.464844v39.863281h160zm-16 23.863281h-128v-23.863281c0-10.664063 7.160156-20.152344 17.40625-23.082031l38.59375-11.023438v-23.070312l-3.976562-2.3125c-7.527344-4.382813-12.023438-12.105469-12.023438-20.648438v-16c0-6.703125 2.839844-13.160156 7.792969-17.695312 5.007812-4.601563 11.496093-6.832032 18.382812-6.207032 12.230469 1.0625 21.824219 12.285156 21.824219 25.566406v14.335938c0 8.542969-4.496094 16.265625-12.023438 20.648438l-3.976562 2.3125v23.070312l38.59375 11.023438c10.246094 2.9375 17.40625 12.425781 17.40625 23.082031zm0 0"
     id="path431" />
  <path
     d="m32 364.945312 73.886719-36.945312-73.886719-36.945312zm16-48 22.113281 11.054688-22.113281 11.054688zm0 0"
     id="path433" />
  <path
     d="m152 288h16v80h-16zm0 0"
     id="path435" />
  <path
     d="m120 288h16v80h-16zm0 0"
     id="path437" />
  <path
     d="m336 288h-48v32h-104v16h104v32h48v-32h128v-16h-128zm-16 64h-16v-48h16zm0 0"
     id="path439" />
  <path
     style="opacity:1;vector-effect:none;fill:#ffffff;fill-opacity:1;stroke:#ffffff;stroke-width:1.40112996px;stroke-linecap:butt;stroke-linejoin:miter;stroke-miterlimit:4;stroke-dasharray:none;stroke-dashoffset:0;stroke-opacity:1"
     d="M 21.655546,595.10321 C 14.875598,592.51398 7.5619214,585.71987 4.2353023,578.92051 L 0.61496,571.52079 0.9770606,329.05363 1.3391613,86.586472 5.5641835,79.752832 C 8.6401317,74.77773 11.827421,71.854417 17.283503,69.004125 L 24.7778,65.089058 h 306.39916 306.39915 l 7.58338,4.553672 c 5.84964,3.5126 8.47818,6.271984 11.49734,12.069602 l 3.91397,7.515929 V 330.60318 571.97811 l -3.91387,7.49199 c -2.44318,4.67681 -6.17394,9.08047 -9.92851,11.71932 l -6.01464,4.22732 -308.47828,0.24454 C 162.57247,595.79579 22.811478,595.54465 21.655546,595.10321 Z M 634.58713,575.63113 c 6.6157,-2.53868 6.36785,6.99886 6.36785,-245.05048 0,-176.92797 -0.4093,-237.020577 -1.62999,-239.312518 -0.8965,-1.683237 -2.6304,-3.828513 -3.85311,-4.767283 -3.06812,-2.355624 -603.529048,-2.592712 -608.691947,-0.240337 -1.877836,0.855599 -4.114283,3.092046 -4.969882,4.969882 -2.280149,5.004381 -2.207232,474.423996 0.07436,478.707836 0.896496,1.68323 2.630394,3.82852 3.853107,4.76729 1.731298,1.32924 69.073675,1.71671 304.402302,1.75141 166.19856,0.0245 303.19984,-0.3471 304.44731,-0.8258 z"
     id="path449"
     inkscape:connector-curvature="0"
     transform="matrix(0.75000002,0,0,0.75000002,0,-48)" />
  <path
     style="opacity:1;vector-effect:none;fill:#ffffff;fill-opacity:1;stroke:#ffffff;stroke-width:1.40112996px;stroke-linecap:butt;stroke-linejoin:miter;stroke-miterlimit:4;stroke-dasharray:none;stroke-dashoffset:0;stroke-opacity:1"
     d="m 42.672495,501.54504 c 0,-26.58864 0.319639,-48.34299 0.710309,-48.34299 1.368608,0 96.240156,47.83257 95.756136,48.27856 -0.26897,0.24784 -22.08396,11.2409 -48.477745,24.42902 l -47.9887,23.9784 z m 36.454835,7.68944 c 7.692214,-3.86014 13.985843,-7.50089 13.985843,-8.09057 0,-1.16098 -25.766884,-14.31474 -28.041128,-14.31474 -0.821597,0 -1.382601,5.96948 -1.382601,14.71187 0,8.09152 0.32671,14.71186 0.726022,14.71186 0.399311,0 7.01965,-3.15829 14.711864,-7.01842 z"
     id="path451"
     inkscape:connector-curvature="0"
     transform="matrix(0.75000002,0,0,0.75000002,0,-48)" />
  <path
     style="opacity:1;vector-effect:none;fill:#ffffff;fill-opacity:1;stroke:#ffffff;stroke-width:1.40112996px;stroke-linecap:butt;stroke-linejoin:miter;stroke-miterlimit:4;stroke-dasharray:none;stroke-dashoffset:0;stroke-opacity:1"
     d="M 65.090574,266.85177 V 107.12296 H 330.6047 596.11882 V 266.85177 426.58058 H 330.6047 65.090574 Z M 576.503,266.1512 V 126.73878 H 330.6047 84.706393 V 266.1512 405.56363 H 330.6047 576.503 Z"
     id="path453"
     inkscape:connector-curvature="0"
     transform="matrix(0.75000002,0,0,0.75000002,0,-48)" />
  <path
     style="opacity:1;vector-effect:none;fill:#ffffff;fill-opacity:1;stroke:#ffffff;stroke-width:1.40112996px;stroke-linecap:butt;stroke-linejoin:miter;stroke-miterlimit:4;stroke-dasharray:none;stroke-dashoffset:0;stroke-opacity:1"
     d="m 160.36741,501.54104 v -52.54238 h 10.50847 10.50848 v 52.54238 52.54237 h -10.50848 -10.50847 z"
     id="path455"
     inkscape:connector-curvature="0"
     transform="matrix(0.75000002,0,0,0.75000002,0,-48)" />
  <path
     style="opacity:1;vector-effect:none;fill:#ffffff;fill-opacity:1;stroke:#ffffff;stroke-width:1.40112996px;stroke-linecap:butt;stroke-linejoin:miter;stroke-miterlimit:4;stroke-dasharray:none;stroke-dashoffset:0;stroke-opacity:1"
     d="m 203.80244,501.54104 v -52.54238 h 9.80791 9.80791 v 52.54238 52.54237 h -9.80791 -9.80791 z"
     id="path457"
     inkscape:connector-curvature="0"
     transform="matrix(0.75000002,0,0,0.75000002,0,-48)" />
  <path
     style="opacity:1;vector-effect:none;fill:#ffffff;fill-opacity:1;stroke:#ffffff;stroke-width:1.40112996px;stroke-linecap:butt;stroke-linejoin:miter;stroke-miterlimit:4;stroke-dasharray:none;stroke-dashoffset:0;stroke-opacity:1"
     d="m 225.07651,350.56928 c 0.43422,-31.89902 0.52094,-32.74157 4.17102,-40.52789 4.48348,-9.5641 13.47148,-19.64765 21.93302,-24.60645 3.41328,-2.00032 15.39614,-6.27012 26.62857,-9.48845 11.23244,-3.21834 20.67471,-6.60783 20.98284,-7.53221 0.30813,-0.92439 -2.38256,-4.82678 -5.97931,-8.672 -3.59675,-3.84521 -8.20907,-10.59659 -10.2496,-15.00305 -3.33754,-7.20734 -3.76492,-9.99856 -4.25659,-27.79973 -0.43194,-15.63878 -0.0503,-21.51464 1.82028,-28.0226 4.79291,-16.67543 16.58915,-29.54915 32.61063,-35.5893 11.47379,-4.32565 28.86695,-3.51356 39.85151,1.86068 9.7165,4.75384 21.12744,16.67292 26.08033,27.24171 3.62403,7.73313 3.7773,8.9983 3.7773,31.17884 0,22.14706 -0.15781,23.45535 -3.75512,31.1304 -2.0653,4.40646 -6.69789,11.15784 -10.29464,15.00305 -3.59675,3.84522 -6.28744,7.74761 -5.97931,8.672 0.30812,0.92438 9.66953,4.30468 20.80312,7.51179 11.13359,3.2071 22.41311,6.96973 25.06557,8.3614 8.61193,4.51839 19.09983,15.72905 23.37623,24.98719 4.01733,8.69725 4.02816,8.79722 4.47053,41.29462 l 0.44346,32.57627 H 330.6047 224.63306 Z m 191.69768,-5.44196 c 0,-21.15323 -1.36483,-27.05229 -8.07181,-34.88788 -6.22074,-7.26755 -9.86749,-9.05909 -30.33636,-14.90343 -9.31504,-2.65966 -21.1924,-6.08506 -26.39409,-7.61199 l -9.45763,-2.77622 v -15.31712 -15.31712 l 4.06276,-2.10093 c 6.84344,-3.53888 13.86421,-12.99581 15.68361,-21.12571 2.51201,-11.22486 1.05077,-34.99749 -2.5815,-41.99786 -8.91329,-17.17833 -27.03226,-23.49892 -43.63955,-15.22316 -8.98406,4.47695 -14.79446,12.00334 -17.05102,22.08671 -2.38198,10.64378 -1.15192,35.24999 2.07334,41.47543 3.23167,6.2378 8.84302,12.29418 13.78005,14.87293 3.84568,2.00871 3.8531,2.04211 3.8531,17.32971 v 15.31712 l -9.45762,2.77622 c -5.2017,1.52693 -17.07904,4.95233 -26.3941,7.61199 -19.24524,5.49497 -23.58306,7.46484 -28.79058,13.07428 -7.79397,8.39553 -8.83317,12.21536 -9.37295,34.45278 l -0.50165,20.66667 h 86.298 86.298 z"
     id="path459"
     inkscape:connector-curvature="0"
     transform="matrix(0.75000002,0,0,0.75000002,0,-48)" />
  <path
     style="opacity:1;vector-effect:none;fill:#ffffff;fill-opacity:1;stroke:#ffffff;stroke-width:1.40112996px;stroke-linecap:butt;stroke-linejoin:miter;stroke-miterlimit:4;stroke-dasharray:none;stroke-dashoffset:0;stroke-opacity:1"
     d="m 384.5482,533.06646 v -21.01695 h -69.35593 -69.35593 v -10.50847 -10.50848 h 69.35593 69.35593 v -21.01695 -21.01695 h 31.52542 31.52543 v 21.01695 21.01695 h 85.46893 85.46892 v 10.50848 10.50847 h -85.46892 -85.46893 v 21.01695 21.01695 H 416.07362 384.5482 Z m 42.73446,-31.52542 v -32.22599 l -11.55932,-0.40695 -11.55932,-0.40695 v 32.04913 c 0,17.62703 0.44454,32.49367 0.98785,33.03699 0.54332,0.54332 5.74501,0.80603 11.55932,0.5838 l 10.57147,-0.40405 z"
     id="path461"
     inkscape:connector-curvature="0"
     transform="matrix(0.75000002,0,0,0.75000002,0,-48)" />
</svg>
