<?xml version="1.0" encoding="UTF-8" standalone="no"?>
<!-- Generator: Adobe Illustrator 17.1.0, SVG Export Plug-In . SVG Version: 6.00 Build 0)  -->

<svg
   xmlns:dc="http://purl.org/dc/elements/1.1/"
   xmlns:cc="http://creativecommons.org/ns#"
   xmlns:rdf="http://www.w3.org/1999/02/22-rdf-syntax-ns#"
   xmlns:svg="http://www.w3.org/2000/svg"
   xmlns="http://www.w3.org/2000/svg"
   xmlns:sodipodi="http://sodipodi.sourceforge.net/DTD/sodipodi-0.dtd"
   xmlns:inkscape="http://www.inkscape.org/namespaces/inkscape"
   version="1.1"
   id="Capa_1"
   x="0px"
   y="0px"
   viewBox="0 0 213.652 213.652"
   style="enable-background:new 0 0 213.652 213.652;"
   xml:space="preserve"
   sodipodi:docname="starwars.svg"
   inkscape:version="0.92.1 r15371"><metadata
   id="metadata47"><rdf:RDF><cc:Work
       rdf:about=""><dc:format>image/svg+xml</dc:format><dc:type
         rdf:resource="http://purl.org/dc/dcmitype/StillImage" /></cc:Work></rdf:RDF></metadata><defs
   id="defs45" /><sodipodi:namedview
   pagecolor="#ffffff"
   bordercolor="#666666"
   borderopacity="1"
   objecttolerance="10"
   gridtolerance="10"
   guidetolerance="10"
   inkscape:pageopacity="0"
   inkscape:pageshadow="2"
   inkscape:window-width="1304"
   inkscape:window-height="745"
   id="namedview43"
   showgrid="false"
   inkscape:zoom="3.7200122"
   inkscape:cx="114.12489"
   inkscape:cy="127.81495"
   inkscape:window-x="-8"
   inkscape:window-y="-8"
   inkscape:window-maximized="1"
   inkscape:current-layer="Capa_1" />
<path
   d="M106.826,213.652c-0.378,0-0.757-0.007-1.142-0.021c-3.864-0.143-17.262-0.781-27.405-3.01  c-12.45-2.736-19.411-4.522-25.294-7.268c-4.635-2.164-6.084-5.398-6.531-7.397c-4.644-1.036-19.254-4.993-30.908-15.75  c-4.998-4.614-7.912-9.053-9.585-12.889c-0.023-0.048-0.044-0.098-0.064-0.148c-2.993-6.964-1.898-11.904-1.824-12.22  c0.027-0.113,0.064-0.224,0.11-0.332l35.816-82.71c-0.314-3.679-1.308-24.146,12.828-44.862C66.125,7.557,89.653,5.387,96.792,5.189  V2c0-1.104,0.896-2,2-2h16.067c1.104,0,2,0.896,2,2v3.189c7.138,0.197,30.666,2.366,43.967,21.856  c14.135,20.715,13.141,41.183,12.827,44.862l35.815,82.71c0.047,0.107,0.084,0.218,0.11,0.332c0.075,0.314,1.161,5.215-1.788,12.135  c-0.039,0.12-0.089,0.236-0.15,0.347c-1.681,3.81-4.587,8.207-9.535,12.774c-11.654,10.757-26.264,14.714-30.907,15.75  c-0.446,1.999-1.896,5.233-6.531,7.397c-5.885,2.746-12.845,4.531-25.294,7.268c-10.143,2.229-23.542,2.867-27.406,3.01  C107.583,213.646,107.205,213.652,106.826,213.652z M50.24,194.007c0.018,0.127,0.023,0.259,0.016,0.392  c-0.001,0.098-0.012,3.261,4.42,5.33c5.543,2.587,12.304,4.314,24.461,6.985c9.816,2.158,22.915,2.78,26.695,2.92  c0.669,0.024,1.318,0.024,1.984,0c3.782-0.14,16.88-0.763,26.696-2.92c12.157-2.671,18.918-4.398,24.462-6.985  c4.433-2.068,4.421-5.231,4.419-5.365c-0.003-0.114,0.005-0.226,0.021-0.336c-0.454-2.182-2.198-9.937-6.045-20.479  c-3.266-8.948-8.076-16.328-10.485-19.723c-1.016,0.917-2.287,1.555-3.692,1.794c-1.223,1.865-7.064,10.257-16.845,16.189  c-10.561,6.406-18.49,9.04-18.896,9.173c-0.2,0.066-0.411,0.101-0.626,0.101l0,0l0,0c-0.217,0-0.429-0.035-0.63-0.102  c-0.456-0.149-8.367-2.788-18.893-9.172c-9.779-5.932-15.622-14.324-16.843-16.189c-1.406-0.239-2.678-0.878-3.694-1.794  c-2.409,3.395-7.22,10.774-10.484,19.723C52.447,184.057,50.701,191.796,50.24,194.007z M9.938,166.435  c1.518,3.197,4.072,6.91,8.321,10.832c10.307,9.514,23.415,13.414,28.348,14.611c0.533-2.374,1.599-6.693,3.415-12.385  c0.368-1.261,2.38-8.93,2.373-25.768c-0.008-18.56-5.359-38.844-5.471-39.262c-0.004-0.016-0.008-0.032-0.012-0.048c0,0,0,0,0,0  c0-0.001,0-0.002,0-0.003c-0.114-0.471-0.051-0.945,0.148-1.351c0-0.001,0.001-0.002,0.001-0.003c0,0,0,0,0,0  c0.043-0.088,0.093-0.172,0.148-0.252c0.247-0.358,0.611-0.638,1.056-0.775c0.001,0,0.002,0,0.004-0.001l0,0  c0.033-0.01,0.066-0.019,0.1-0.028c0.002,0,0.003,0,0.003,0c0.044-0.011,0.089-0.021,0.133-0.028l46.149-8.698  c0.823-0.155,1.656,0.219,2.086,0.938c0.43,0.718,0.367,1.629-0.158,2.282l-25.235,31.343c-0.364,0.453-0.908,0.725-1.489,0.745  c-0.599,0.008-1.143-0.214-1.537-0.641l-15.796-17.083c1.646,7.784,3.863,20.549,3.869,32.866c0.001,3.8-0.096,7.148-0.255,10.078  c3.4-6.833,6.993-11.852,8.395-13.711c-0.136-0.558-0.208-1.141-0.208-1.74c0-4.066,3.308-7.375,7.375-7.375  c2.079,0,3.959,0.864,5.301,2.252l22.623-39.486c1.646-2.872,4.243-4.519,7.128-4.519s5.482,1.647,7.128,4.519l2.974,5.19  c0.025,0.04,0.049,0.081,0.07,0.123l19.635,34.269c1.347-1.444,3.266-2.348,5.392-2.348c4.066,0,7.375,3.309,7.375,7.375  c0,0.6-0.072,1.183-0.208,1.741c1.476,1.957,5.374,7.408,8.921,14.787c-0.194-3.179-0.318-6.882-0.316-11.155  c0.005-12.667,2.35-25.808,4.007-33.518l-16.398,17.735c-0.396,0.427-0.965,0.649-1.537,0.641c-0.581-0.02-1.125-0.292-1.489-0.745  l-25.235-31.343c-0.525-0.653-0.589-1.563-0.158-2.282c0.43-0.718,1.255-1.096,2.086-0.938l46.048,8.678  c0.238-0.025,0.486-0.009,0.734,0.057c1.066,0.286,1.7,1.382,1.414,2.449c-0.055,0.204-5.463,20.624-5.471,39.267  c-0.009,18.439,2.406,25.883,2.43,25.956c0.155,0.463,0.131,0.943-0.034,1.365c1.521,4.924,2.443,8.677,2.927,10.83  c4.938-1.203,18.064-5.117,28.348-14.609c4.244-3.918,6.794-7.634,8.312-10.838l-38.238-90.902  c-1.017-1.435-10.149-13.701-26.165-15.303c-15.357-1.536-20.057,6.244-20.705,7.487c-0.203,1.475-1.132,4.963-5.379,6.622  c-2.067,0.808-3.679,0.411-4.667-0.063c-0.678-0.325-1.246-0.768-1.716-1.25c-0.473,0.488-1.045,0.938-1.732,1.267  c-1.417,0.68-3.032,0.701-4.667,0.063c-4.293-1.677-5.195-5.222-5.385-6.668c-0.643-1.231-5.345-9.008-20.699-7.474  C58.342,61.808,49.211,74.064,48.187,75.51L9.938,166.435z M74.908,154.989c2.21,2.986,7.214,8.999,14.469,13.399  c8.541,5.181,15.406,7.836,17.449,8.575c2.042-0.738,8.907-3.394,17.448-8.575c7.255-4.4,12.259-10.413,14.47-13.399  c-2.244-1.088-3.857-3.282-4.128-5.869h-55.58C78.766,151.707,77.153,153.901,74.908,154.989z M7.937,156.016  c-0.087,0.49-0.306,2.139,0.112,4.594L44.58,73.768c0.048-0.114,0.107-0.224,0.175-0.327c0.413-0.625,10.329-15.326,29.198-17.213  c15.332-1.533,21.818,5.32,23.962,8.485c1.441-0.316,3.605-0.633,5.421-0.244c1.465,0.314,2.642,1.062,3.499,1.799  c0.855-0.732,2.025-1.471,3.479-1.782c1.816-0.39,3.979-0.073,5.421,0.244c2.145-3.165,8.631-10.021,23.963-8.485  c18.868,1.887,28.785,16.589,29.198,17.214c0.068,0.104,0.127,0.213,0.175,0.327l36.52,86.815c0.421-2.462,0.205-4.113,0.123-4.585  l-35.938-82.992c-0.141-0.324-0.192-0.679-0.151-1.029c0.024-0.211,2.294-21.592-12.104-42.693  c-12.053-17.664-34.092-19.844-40.684-20.094v44.714c4.577-3.25,13.323-8.306,23.086-7.922c13.947,0.542,25.446,11.496,25.93,11.962  c0.794,0.767,0.815,2.032,0.05,2.826c-0.766,0.795-2.031,0.819-2.827,0.053c-0.107-0.104-10.907-10.362-23.308-10.844  c-12.366-0.46-23.479,9.415-23.591,9.514c-0.588,0.529-1.433,0.661-2.152,0.342c-0.722-0.321-1.188-1.037-1.188-1.827V7.183  c0-0.1,0.008-0.198,0.021-0.294V4h-12.067v2.885c0.015,0.097,0.022,0.196,0.022,0.297v50.843c0,0.79-0.466,1.505-1.188,1.827  c-0.722,0.321-1.566,0.187-2.153-0.342c-0.11-0.1-11.216-9.992-23.59-9.514c-12.401,0.481-23.201,10.74-23.309,10.844  c-0.794,0.765-2.061,0.743-2.827-0.053c-0.766-0.795-0.744-2.059,0.05-2.826c0.483-0.466,11.982-11.42,25.93-11.962  c9.75-0.392,18.508,4.672,23.085,7.921V9.207c-6.59,0.249-28.63,2.429-40.684,20.094C41.733,50.402,44.002,71.783,44.026,71.997  c0.041,0.349-0.012,0.704-0.151,1.026L7.937,156.016z M141.951,144.974c-1.861,0-3.375,1.514-3.375,3.375s1.514,3.375,3.375,3.375  s3.375-1.514,3.375-3.375S143.812,144.974,141.951,144.974z M71.701,144.974c-1.861,0-3.375,1.514-3.375,3.375  s1.514,3.375,3.375,3.375s3.375-1.514,3.375-3.375S73.562,144.974,71.701,144.974z M125.481,145.121h7.498l-7.498-13.087V145.121z   M117.154,145.121h4.327v-20.036c0-0.011,0-0.021,0-0.032l-4.327-7.553V145.121z M108.826,145.121h4.328v-34.602l-2.744-4.79  c-0.442-0.772-0.983-1.384-1.584-1.811V145.121z M100.498,145.121h4.328v-41.302c-0.659,0.428-1.252,1.076-1.73,1.91l-2.614,4.562  c0.011,0.085,0.017,0.171,0.017,0.259V145.121z M92.171,145.121h4.328v-27.877l-4.344,7.583c0.011,0.085,0.017,0.171,0.017,0.259  V145.121z M80.527,145.121h7.644v-13.342L80.527,145.121z M123.586,108.208l20.381,25.314l16.909-18.287L123.586,108.208z   M52.777,115.236l16.909,18.287l20.381-25.314L52.777,115.236z M99.415,68.494c0.377,0.741,1.099,1.592,2.476,2.13  c0.791,0.308,1.224,0.18,1.482,0.056c0.463-0.222,0.844-0.695,1.116-1.139c-0.466-0.455-1.159-0.984-1.99-1.162  C101.632,68.194,100.437,68.311,99.415,68.494z M109.176,69.546c0.274,0.444,0.653,0.906,1.112,1.122  c0.257,0.12,0.688,0.245,1.473-0.061c1.355-0.53,2.076-1.364,2.458-2.1c-1.065-0.188-2.243-0.287-3.066-0.112  C110.331,68.572,109.643,69.092,109.176,69.546z M138.358,101.212c-3.932,0-7.845-0.355-11.275-1.309  c-6.486-1.802-10.436-6.403-11.421-13.306c-0.08-0.556-0.129-1.151-0.146-1.768c-0.181-6.607,3.656-12.958,9.773-16.181  c4.746-2.501,10.194-3.77,16.193-3.77c16.55,0,22.635,13.847,22.988,20.553c0.304,5.772-2.602,13.038-11.786,14.519  C148.548,100.618,143.437,101.212,138.358,101.212z M141.482,68.879c-5.343,0-10.163,1.113-14.328,3.309  c-4.78,2.519-7.779,7.438-7.641,12.531c0.014,0.464,0.05,0.906,0.107,1.312c0,0,0,0,0,0.001c0.755,5.284,3.625,8.654,8.532,10.017  c7.546,2.096,18.208,0.87,23.895-0.047c8.256-1.331,8.538-8.266,8.429-10.359C160.29,82.102,156.518,68.879,141.482,68.879z   M75.294,101.212c-5.08,0-10.189-0.594-14.327-1.261c-9.185-1.481-12.089-8.747-11.785-14.519  c0.353-6.706,6.437-20.553,22.988-20.553c5.998,0,11.446,1.268,16.193,3.77c6.118,3.224,9.954,9.574,9.773,16.18  c-0.017,0.614-0.065,1.209-0.145,1.769c-0.986,6.904-4.936,11.505-11.422,13.307C83.139,100.856,79.225,101.212,75.294,101.212z   M72.17,68.879c-15.037,0-18.807,13.223-18.994,16.763c-0.11,2.094,0.172,9.028,8.428,10.359c5.687,0.918,16.353,2.144,23.895,0.047  c4.907-1.363,7.777-4.733,8.532-10.017c0.058-0.408,0.094-0.85,0.107-1.313v0c0.139-5.094-2.859-10.013-7.639-12.531  C82.332,69.992,77.511,68.879,72.17,68.879z M111.924,95.305h-10.197c-1.104,0-2-0.896-2-2s0.896-2,2-2h10.197c1.104,0,2,0.896,2,2  S113.029,95.305,111.924,95.305z M109.979,89.258h-6.306c-1.104,0-2-0.896-2-2s0.896-2,2-2h6.306c1.104,0,2,0.896,2,2  S111.084,89.258,109.979,89.258z M109.979,83.125h-6.306c-1.104,0-2-0.896-2-2s0.896-2,2-2h6.306c1.104,0,2,0.896,2,2  S111.084,83.125,109.979,83.125z"
   id="path10" />
<g
   id="g12">
</g>
<g
   id="g14">
</g>
<g
   id="g16">
</g>
<g
   id="g18">
</g>
<g
   id="g20">
</g>
<g
   id="g22">
</g>
<g
   id="g24">
</g>
<g
   id="g26">
</g>
<g
   id="g28">
</g>
<g
   id="g30">
</g>
<g
   id="g32">
</g>
<g
   id="g34">
</g>
<g
   id="g36">
</g>
<g
   id="g38">
</g>
<g
   id="g40">
</g>
<path
   style="opacity:1;vector-effect:none;fill:#ffffff;fill-opacity:1;stroke:#ffffff;stroke-width:1.07526529px;stroke-linecap:butt;stroke-linejoin:miter;stroke-miterlimit:4;stroke-dasharray:none;stroke-dashoffset:0;stroke-opacity:1"
   d="m 94.138739,212.38999 c -23.48769,-2.19562 -46.77404,-9.95836 -46.77404,-15.59261 0,-0.73701 -1.572576,-1.67081 -3.494613,-2.07511 -1.922036,-0.4043 -7.365567,-2.53272 -12.096734,-4.72983 -14.870722,-6.90583 -27.4192649,-21.05525 -27.4192649,-30.9173 0,-2.20042 6.7397459,-19.03866 17.8842979,-44.68121 C 38.724886,76.460074 40.156491,72.656106 40.555233,65.723573 42.279738,35.741252 58.204577,14.140591 83.343181,7.6854349 86.867959,6.7803334 91.310097,6.0397957 93.2146,6.0397957 c 2.772328,0 3.531237,-0.4823714 3.806332,-2.4193469 0.322433,-2.2702901 0.923268,-2.438488 9.752178,-2.7300264 l 9.40857,-0.31067949 V 3.3097693 c 0,2.4429635 0.4285,2.7300264 4.07514,2.7300264 11.01887,0 26.79031,6.9589483 35.12946,15.5004203 9.65137,9.885526 17.78463,30.290399 17.78433,44.617622 -1.1e-4,5.409412 1.83278,10.237448 18.32022,48.257642 20.32026,46.8587 19.79885,44.81106 14.11732,55.43921 -5.07685,9.49698 -18.95711,19.66261 -32.60917,23.88231 -4.21801,1.30375 -6.43229,2.6417 -7.21503,4.35963 -1.56405,3.43274 -7.88888,6.40368 -20.2587,9.51605 -18.68434,4.70118 -35.48861,6.26343 -51.386511,4.77731 z m 36.918141,-4.64794 c 11.86677,-2.07786 25.12265,-5.82563 29.04749,-8.21246 4.45669,-2.71028 4.40849,-5.44179 -0.35508,-20.12315 -4.28504,-13.2065 -11.04564,-25.67367 -13.67966,-25.22652 -0.94327,0.16014 -5.51365,4.03673 -10.15636,8.61465 -10.04211,9.90196 -24.97008,18.10747 -30.91173,16.99136 -6.581579,-1.2363 -21.290151,-10.59996 -29.27861,-18.63912 -4.26058,-4.28762 -8.170721,-7.79567 -8.689201,-7.79567 -2.880895,0 -13.684538,24.92234 -16.868714,38.91352 -1.040129,4.57028 2.790558,7.83205 12.79103,10.89131 8.171757,2.49984 23.997502,5.60184 33.333224,6.53362 6.858581,0.68456 25.792831,-0.37607 34.767611,-1.94754 z M 49.631218,182.65212 c 2.272687,-8.3131 2.564925,-11.59952 2.509911,-28.22571 -0.05052,-15.26775 -0.515783,-20.92097 -2.466599,-29.97057 -1.322384,-6.13439 -2.257154,-11.30061 -2.077267,-11.4805 1.05545,-1.05545 47.463922,-9.12666 48.18672,-8.38048 0.783907,0.80927 -23.780865,32.72878 -25.7529,33.46337 -0.440641,0.16414 -4.308475,-3.58585 -8.595184,-8.3333 -4.28671,-4.74746 -8.162809,-8.63175 -8.613555,-8.63175 -0.450745,0 -0.173772,3.26612 0.615495,7.25804 0.789267,3.99192 1.756378,13.68225 2.149135,21.53405 l 0.714102,14.276 2.680526,-4.59861 c 1.47429,-2.52924 3.33456,-5.36252 4.133934,-6.29619 0.799374,-0.93366 1.453407,-2.68291 1.453407,-3.88723 0,-1.20432 1.037952,-3.50922 2.306558,-5.12198 2.231818,-2.83731 4.15456,-3.1587 9.275484,-1.55046 0.837764,0.26311 6.068368,-7.68797 13.510141,-20.53684 17.286954,-29.847441 17.131314,-29.850837 34.607604,0.75505 6.34742,11.11612 11.72932,20.42079 11.9598,20.67705 0.23046,0.25628 0.9916,-0.10666 1.69143,-0.80644 3.19295,-3.19295 10.51968,0.15388 10.51968,4.80536 0,1.50151 0.97649,4.10138 2.16998,5.77748 1.19349,1.6761 3.29601,5.02986 4.67224,7.45277 l 2.50226,4.4053 0.70781,-14.81363 c 0.38928,-8.1475 1.38317,-18.20072 2.20865,-22.34049 1.61361,-8.0923 1.34306,-9.79765 -1.03779,-6.54163 -1.6249,2.22218 -15.55929,16.75665 -16.06483,16.75665 -0.62321,0 -25.37528,-31.29223 -25.96249,-32.82249 -0.33474,-0.8723 -0.0251,-1.586 0.68806,-1.586 1.71964,0 47.7674,8.69953 48.17405,9.10124 0.17383,0.17173 -0.76588,5.33127 -2.08827,11.46566 -3.26083,15.12662 -3.53717,44.42371 -0.54132,57.38983 1.09315,4.73117 2.38034,9.01835 2.86042,9.52707 1.18177,1.25226 11.01576,-2.04355 18.27025,-6.12319 6.916,-3.88929 14.1484,-10.28735 17.18755,-15.20481 l 2.14808,-3.47565 -19.39494,-46.12497 C 170.69344,86.564544 164.66512,73.411913 162.23238,70.90187 c -1.82162,-1.8795 -6.27503,-4.996669 -9.89647,-6.927041 -5.51217,-2.938206 -7.98528,-3.574278 -15.18656,-3.905895 -10.13867,-0.466882 -14.68166,1.31538 -18.50827,7.260983 -4.08961,6.354245 -4.10046,6.359616 -12.37951,6.129913 l -7.783555,-0.215954 -2.583952,-4.687591 c -3.314224,-6.012384 -8.884415,-8.696986 -18.112784,-8.72961 -9.477423,-0.0335 -17.364874,3.194441 -24.484764,10.020407 -5.704271,5.468787 -6.048059,6.171476 -24.28284,49.633198 -10.173158,24.24724 -18.732157,44.94062 -19.0199984,45.9853 -0.6875829,2.49551 5.5889304,10.49883 12.1809754,15.53222 5.206232,3.97526 19.980808,11.02565 23.155505,11.04976 1.263801,0.01 2.420824,-2.51786 4.301061,-9.39544 z m 68.544732,-10.46136 c 6.01956,-3.10899 11.39118,-6.9083 15.15364,-10.71809 5.54294,-5.61266 5.73981,-5.9999 4.01771,-7.90281 -0.99597,-1.10052 -1.81085,-2.56769 -1.81085,-3.26037 0,-0.9319 -7.34015,-1.24394 -28.22571,-1.19992 l -28.225715,0.0595 -2.515714,3.18391 -2.515713,3.1839 6.325181,6.16518 c 6.260756,6.10236 22.186391,15.30228 26.492341,15.30409 1.08885,4.5e-4 6.17602,-2.16648 11.30483,-4.8154 z M 27.618019,115.39951 C 47.48087,68.163215 48.171957,67.038537 61.320538,60.55181 c 6.193743,-3.055625 7.983079,-3.435882 16.128979,-3.427619 9.574278,0.0097 13.79112,1.393666 18.453997,6.056543 1.819482,1.819481 3.604135,2.194225 10.595006,2.224752 7.74536,0.03383 8.73219,-0.218257 12.53967,-3.203148 5.85278,-4.588315 11.20829,-6.019888 19.8196,-5.297947 9.2498,0.775472 18.15752,4.908405 24.62675,11.42614 4.46046,4.493897 6.42725,8.611408 23.03867,48.231809 9.98903,23.82514 18.57112,43.57138 19.07131,43.88051 2.82068,1.74328 -0.88398,-8.06686 -17.00846,-45.03919 C 170.6917,74.37311 170.66711,74.305723 169.864,64.104121 168.07918,41.432611 157.29918,22.868291 141.21439,14.766451 135.46587,11.870944 125.53981,9.2655916 120.25682,9.2655916 h -4.07514 V 31.935768 c 0,12.468597 0.3629,22.489899 0.80645,22.26956 14.23637,-7.07215 14.91759,-7.303772 21.48354,-7.304603 3.69808,-4.69e-4 8.75541,0.801453 11.29028,1.790255 6.40954,2.500227 15.88193,8.869462 15.88193,10.679004 0,2.122622 -0.89619,1.900171 -5.02165,-1.246466 -6.55255,-4.997876 -15.3381,-8.356267 -21.85998,-8.356267 -6.27112,0 -15.56566,3.443944 -21.15049,7.836978 -1.51696,1.193241 -3.18511,1.905632 -3.707,1.583089 -0.52188,-0.322543 -0.94888,-12.896553 -0.94888,-27.942247 V 3.8892651 h -6.45159 -6.45159 V 31.846163 c 0,15.376293 -0.274222,27.956897 -0.609379,27.956897 -0.335157,0 -2.150204,-1.175247 -4.033436,-2.611658 -13.207075,-10.073527 -29.889693,-9.589195 -42.761181,1.241446 -2.27894,1.917602 -3.603757,2.405301 -4.392182,1.616877 -0.788425,-0.788426 0.447394,-2.288564 4.097123,-4.973427 12.425036,-9.140273 25.506,-10.587531 37.903593,-4.193595 l 6.569664,3.388239 V 31.768267 9.2655916 h -4.38029 c -5.777619,0 -19.450875,4.6538404 -25.107235,8.5455184 -13.429212,9.23954 -22.140813,26.75744 -23.912366,48.08466 -0.650676,7.833319 -1.930718,11.268249 -18.273408,49.0358 -9.665546,22.33684 -17.5590062,41.93355 -17.5410227,43.54824 0.02852,2.56082 0.1761612,2.68926 1.1558503,1.00558 0.6177341,-1.06163 9.1000484,-20.90028 18.8495884,-44.08588 z m 46.953003,34.60317 c 1.612705,-2.5612 0.123071,-5.25366 -2.906648,-5.25366 -3.129669,0 -4.740491,3.56903 -2.713272,6.01168 1.613313,1.94392 4.132558,1.60412 5.61992,-0.75802 z m 70.498218,0.41924 c 1.36925,-2.44673 -0.37414,-5.6729 -3.06559,-5.6729 -2.71694,0 -4.44731,3.12305 -3.11239,5.61738 1.3032,2.43506 4.82858,2.46675 6.17798,0.0555 z M 88.224779,138.83506 c 0,-3.84407 -0.195745,-6.98923 -0.43499,-6.98923 -0.67581,0 -7.091867,11.65886 -7.091867,12.8869 0,0.60035 1.693543,1.09155 3.763429,1.09155 h 3.763428 z m 8.568564,-7.79567 -0.03356,-14.7849 -2.649096,4.30106 c -2.338665,3.79705 -2.649742,5.52959 -2.654605,14.7849 -0.0055,10.46738 -0.0013,10.48383 2.682654,10.48383 H 96.8269 Z m 8.635677,-6.18278 c 0,-12.89317 -0.40344,-20.96767 -1.04765,-20.96767 -0.57621,0 -1.78588,1.42758 -2.68816,3.17239 -1.27663,2.46873 -1.64051,7.11959 -1.64051,20.96768 v 17.79527 h 2.68816 2.68816 z m 8.5981,3.49461 c -0.003,-15.52203 -0.24193,-17.86326 -2.13472,-20.96767 -1.17189,-1.92204 -2.37975,-3.49461 -2.68414,-3.49461 -0.30439,0 -0.55344,9.43545 -0.55344,20.96767 v 20.96767 h 2.68816 2.68817 l -0.004,-17.47306 z m 7.53088,6.66701 c 0,-10.60558 -1.65195,-17.15084 -4.32867,-17.15084 -1.17525,0 -1.49196,26.07889 -0.33081,27.24005 0.39426,0.39426 1.60393,0.71684 2.68817,0.71684 1.78081,0 1.97131,-1.04429 1.97131,-10.80605 z m 11.82792,10.25213 c 0,-1.0485 -6.65807,-12.34996 -7.62948,-12.95032 -0.54224,-0.33513 -0.97264,2.51967 -0.97264,6.45156 v 7.05268 h 4.30106 c 2.36558,0 4.30106,-0.24927 4.30106,-0.55392 z M 80.183341,121.362 c 5.939732,-7.28761 9.706434,-12.75914 8.900696,-12.9292 -1.60834,-0.33946 -35.300265,5.88289 -36.080934,6.66355 -0.455205,0.45522 15.695429,18.90001 16.549219,18.90001 0.183389,0 4.967348,-5.68546 10.631019,-12.63436 z m 71.232289,4.96158 c 11.77017,-12.47542 12.63043,-10.94424 -8.39807,-14.94772 -10.06225,-1.91568 -18.57161,-3.20643 -18.90969,-2.86835 -0.50277,0.50276 18.8347,25.39994 19.7809,25.46811 0.15831,0.0114 3.5454,-3.43201 7.52686,-7.65204 z M 104.35376,69.53203 c 0,-1.282139 -3.20817,-2.339926 -4.56099,-1.503837 -0.721444,0.445878 -0.42977,1.225407 0.79308,2.119575 1.9208,1.404522 3.76791,1.102674 3.76791,-0.615738 z m 8.47107,1.127436 c 2.0841,-1.320049 0.56971,-3.242928 -2.02055,-2.565561 -2.20356,0.576244 -2.69977,1.553075 -1.43262,2.820229 0.9374,0.937402 1.65463,0.884507 3.45317,-0.254668 z"
   id="path167"
   inkscape:connector-curvature="0" /><path
   style="opacity:1;vector-effect:none;fill:#ffffff;fill-opacity:1;stroke:#ffffff;stroke-width:1.07526529px;stroke-linecap:butt;stroke-linejoin:miter;stroke-miterlimit:4;stroke-dasharray:none;stroke-dashoffset:0;stroke-opacity:1"
   d=""
   id="path171"
   inkscape:connector-curvature="0" /><path
   style="opacity:1;vector-effect:none;fill:#ffffff;fill-opacity:1;stroke:#ffffff;stroke-width:0.26881632px;stroke-linecap:butt;stroke-linejoin:miter;stroke-miterlimit:4;stroke-dasharray:none;stroke-dashoffset:0;stroke-opacity:1"
   d="m 68.721816,100.82737 c -3.868864,-0.39832 -9.173445,-1.259966 -10.440544,-1.695911 -6.081408,-2.09231 -9.664994,-7.985645 -8.846343,-14.548124 0.705179,-5.652872 4.161073,-11.680907 8.608279,-15.015222 3.046821,-2.284369 5.894044,-3.486756 9.918354,-4.188536 6.165897,-1.075243 14.290591,0.288381 20.32913,3.411978 3.304551,1.709369 6.190136,4.681362 7.797889,8.031396 1.435487,2.99109 1.799806,4.556674 1.799806,7.734285 0,6.248131 -3.153216,11.517521 -8.398096,14.03419 -3.632405,1.742954 -6.237179,2.180674 -13.510434,2.270384 -3.400527,0.0419 -6.666645,0.0264 -7.258041,-0.0344 z M 83.909938,96.572059 C 90.876923,95.033905 94.340933,90.64777 94.082139,83.692001 93.990015,81.215989 93.890892,80.782014 92.979322,78.863706 89.950007,72.488828 82.55405,68.893322 72.485244,68.900614 c -4.673633,0.0034 -6.372798,0.362044 -9.562016,2.018345 -3.52011,1.828148 -5.953729,4.368548 -7.900007,8.246638 -2.828664,5.636302 -2.541776,10.869292 0.77788,14.188948 2.050534,2.050534 3.901099,2.640005 10.927956,3.480943 4.218396,0.504835 14.408777,0.348591 17.180881,-0.263429 z"
   id="path173"
   inkscape:connector-curvature="0" /><path
   style="opacity:1;vector-effect:none;fill:#ffffff;fill-opacity:1;stroke:#ffffff;stroke-width:0.26881632px;stroke-linecap:butt;stroke-linejoin:miter;stroke-miterlimit:4;stroke-dasharray:none;stroke-dashoffset:0;stroke-opacity:1"
   d="m 131.80663,100.7095 c -7.24876,-0.940712 -11.87434,-3.75459 -14.31593,-8.70881 -2.96279,-6.011784 -2.27474,-12.625356 1.89286,-18.194235 1.20631,-1.611901 3.65245,-3.721179 5.65528,-4.876479 1.97416,-1.138764 5.89025,-2.53751 8.88878,-3.174889 4.01031,-0.852448 10.72083,-0.856794 13.82619,-0.009 7.4094,2.022947 12.93939,7.278918 15.53198,14.762344 0.96301,2.7797 1.27779,6.623549 0.73427,8.966216 -1.25856,5.424596 -5.10695,9.031957 -10.88124,10.19973 -5.77957,1.168853 -16.34945,1.681713 -21.33219,1.035083 z m 18.09772,-4.274182 c 4.55832,-0.697721 6.34501,-1.422267 8.07928,-3.276342 1.70362,-1.821309 2.33871,-3.371369 2.48538,-6.066035 0.17762,-3.263448 -0.83451,-6.604643 -3.04174,-10.041258 -3.73175,-5.810263 -9.83254,-8.65918 -17.60354,-8.220417 -7.04209,0.397609 -12.76179,2.460895 -16.13857,5.821719 -3.61927,3.602158 -4.99381,8.144524 -3.88619,12.842423 1.31037,5.557832 4.84855,8.319917 12.11713,9.459265 2.83008,0.443614 13.75836,0.128094 17.98825,-0.519355 z"
   id="path175"
   inkscape:connector-curvature="0" /><path
   style="opacity:1;vector-effect:none;fill:#ffffff;fill-opacity:1;stroke:#ffffff;stroke-width:0.26881632px;stroke-linecap:butt;stroke-linejoin:miter;stroke-miterlimit:4;stroke-dasharray:none;stroke-dashoffset:0;stroke-opacity:1"
   d="m 100.32724,94.376026 c -0.645721,-0.820906 -0.659917,-0.92255 -0.25345,-1.814644 0.51996,-1.141202 1.34913,-1.279016 7.15561,-1.189324 4.85335,0.07497 5.44497,0.134126 5.95398,0.595333 0.71713,0.649782 0.73023,1.876605 0.0275,2.579296 -0.50494,0.504941 -0.89606,0.537632 -6.43208,0.537632 h -5.89445 z"
   id="path177"
   inkscape:connector-curvature="0" /><path
   style="opacity:1;vector-effect:none;fill:#ffffff;fill-opacity:1;stroke:#ffffff;stroke-width:0.26881632px;stroke-linecap:butt;stroke-linejoin:miter;stroke-miterlimit:4;stroke-dasharray:none;stroke-dashoffset:0;stroke-opacity:1"
   d="m 102.45826,88.632728 c -0.69121,-0.691215 -0.69121,-1.996949 0,-2.688164 0.48795,-0.487946 0.89606,-0.537632 4.41596,-0.537632 3.86964,0 3.87958,0.0016 4.43547,0.708293 0.73166,0.930148 0.7034,1.589232 -0.10268,2.395313 -0.63791,0.637915 -0.78518,0.659822 -4.43547,0.659822 -3.41722,0 -3.82668,-0.05104 -4.31328,-0.537632 z"
   id="path179"
   inkscape:connector-curvature="0" /><path
   style="opacity:1;vector-effect:none;fill:#ffffff;fill-opacity:1;stroke:#ffffff;stroke-width:0.26881632px;stroke-linecap:butt;stroke-linejoin:miter;stroke-miterlimit:4;stroke-dasharray:none;stroke-dashoffset:0;stroke-opacity:1"
   d="m 102.45826,82.449952 c -0.69121,-0.691215 -0.69121,-1.996948 0,-2.688163 0.4866,-0.486595 0.89606,-0.537633 4.31328,-0.537633 3.65029,0 3.79756,0.02191 4.43547,0.659822 0.80608,0.806081 0.83434,1.465165 0.10268,2.395314 -0.55589,0.706706 -0.56583,0.708293 -4.43547,0.708293 -3.5199,0 -3.92801,-0.04969 -4.41596,-0.537633 z"
   id="path181"
   inkscape:connector-curvature="0" /></svg>