<?xml version="1.0" encoding="UTF-8" standalone="no"?>
<!-- Generator: Adobe Illustrator 19.0.0, SVG Export Plug-In . SVG Version: 6.00 Build 0)  -->

<svg
   xmlns:dc="http://purl.org/dc/elements/1.1/"
   xmlns:cc="http://creativecommons.org/ns#"
   xmlns:rdf="http://www.w3.org/1999/02/22-rdf-syntax-ns#"
   xmlns:svg="http://www.w3.org/2000/svg"
   xmlns="http://www.w3.org/2000/svg"
   xmlns:sodipodi="http://sodipodi.sourceforge.net/DTD/sodipodi-0.dtd"
   xmlns:inkscape="http://www.inkscape.org/namespaces/inkscape"
   version="1.1"
   id="Capa_1"
   x="0px"
   y="0px"
   viewBox="0 0 511.995 511.995"
   style="enable-background:new 0 0 511.995 511.995;"
   xml:space="preserve"
   sodipodi:docname="travel.svg"
   inkscape:version="0.92.1 r15371"><metadata
   id="metadata320"><rdf:RDF><cc:Work
       rdf:about=""><dc:format>image/svg+xml</dc:format><dc:type
         rdf:resource="http://purl.org/dc/dcmitype/StillImage" /></cc:Work></rdf:RDF></metadata><defs
   id="defs318" /><sodipodi:namedview
   pagecolor="#ffffff"
   bordercolor="#666666"
   borderopacity="1"
   objecttolerance="10"
   gridtolerance="10"
   guidetolerance="10"
   inkscape:pageopacity="0"
   inkscape:pageshadow="2"
   inkscape:window-width="1304"
   inkscape:window-height="745"
   id="namedview316"
   showgrid="false"
   inkscape:zoom="0.65187044"
   inkscape:cx="274.49505"
   inkscape:cy="217.48439"
   inkscape:window-x="-8"
   inkscape:window-y="-8"
   inkscape:window-maximized="1"
   inkscape:current-layer="Capa_1" />
<g
   id="g187">
	<g
   id="g185">
		<path
   d="M256,68.316c-108.22,0-196.267,88.047-196.267,196.267S147.78,460.849,256,460.849s196.267-88.047,196.267-196.267    S364.22,68.316,256,68.316z M256,443.782c-98.807,0-179.2-80.384-179.2-179.2s80.393-179.2,179.2-179.2    c98.816,0,179.2,80.384,179.2,179.2S354.816,443.782,256,443.782z"
   id="path183" />
	</g>
</g>
<g
   id="g193">
	<g
   id="g191">
		<path
   d="M338.364,86.449c-0.785-0.358-1.613-0.606-2.466-0.717l-1.971-0.265c-3.038-0.435-6.05,0.836-7.902,3.268    c-1.86,2.432-2.278,5.658-1.101,8.482c5.862,14.012,12.843,42.334,3.917,48.836l-19.78,7.91    c-14.976,5.99-25.472,19.746-27.392,35.951l-0.128,0.981c-0.469,3.396-3.243,4.318-4.412,4.557    c-2.116,0.427-4.941-0.085-6.562-2.799l-8.474-14.123c-3.115-5.197-8.866-8.286-14.839-7.919    c-6.016,0.307-11.332,3.883-13.892,9.344c-7.62,16.273-17.186,39.757-19.507,59.204c-0.717,6.033,0.358,12.126,3.106,17.63    l9.839,19.678c3.49,6.963,8.841,12.868,15.488,17.067c6.127,3.866,17.485,11.665,24.721,20.403    c8.235,9.958,19.328,16.393,31.241,18.313c-0.478,15.983,0.572,42.257,11.452,53.862c3.806,4.053,8.576,6.281,13.858,6.46    c0.956,0.128,2.637,0.299,4.813,0.299c6.332,0,16.905-1.434,26.573-9.421c13.466-11.127,20.369-30.703,20.523-58.189l12.22-55.006    l4.642,7.731c3.772,6.289,10.078,10.709,17.28,12.126c7.202,1.417,14.711-0.307,20.591-4.71l18.654-13.995    c2.15-1.613,3.413-4.139,3.413-6.827C452.267,188.405,407.552,118.483,338.364,86.449z M419.959,271.75    c-2.048,1.527-4.565,2.099-7.066,1.613c-2.509-0.486-4.617-1.971-5.931-4.164l-8.849-14.754    c-2.918-4.873-8.414-7.433-14.046-6.519c-5.606,0.913-10.027,5.086-11.264,10.633l-14.199,63.906    c-0.137,0.606-0.205,1.229-0.205,1.852c0,22.161-4.881,37.999-14.114,45.807c-8.439,7.134-18.091,5.589-18.398,5.547    c-1.101-0.205-1.937,0.683-3.729-1.229c-5.316-5.675-8.004-25.481-6.536-48.179c0.171-2.697-0.794-5.385-2.645-7.356    c-1.86-1.988-4.506-3.123-7.236-3.123c-9.566,0-18.893-4.634-25.591-12.715c-8.303-10.044-20.224-18.577-28.757-23.962    c-4.011-2.534-7.236-6.084-9.327-10.266l-9.839-19.678c-1.254-2.509-1.749-5.274-1.425-7.987    c2.091-17.459,11.529-39.953,17.399-52.642l7.74,12.894c5.12,8.533,14.771,12.723,24.619,10.735    c9.549-1.954,16.58-9.387,17.894-18.953l0.179-1.348c1.169-9.941,7.595-18.389,16.768-22.059l20.574-8.226    c0.427-0.171,0.853-0.384,1.254-0.623c16.213-9.847,14.114-33.417,9.856-50.671c52.847,31.292,86.588,88.175,88.064,150.076    L419.959,271.75z"
   id="path189" />
	</g>
</g>
<g
   id="g199">
	<g
   id="g197">
		<path
   d="M215.765,382.948l-5.171-5.163c-6.272-6.281-13.594-11.23-21.751-14.729l-26.317-11.281    c-10.607-4.548-17.459-14.942-17.459-26.487v-12.843c0-7.859-3.857-15.215-10.317-19.695c-6.46-4.471-14.711-5.487-22.067-2.739    l-40.977,15.36c-4.113,1.545-6.391,5.956-5.248,10.206c19.208,71.535,78.524,127.078,151.117,141.491    c0.563,0.111,1.126,0.162,1.673,0.162c3.746,0,7.142-2.466,8.209-6.187l3.123-10.94    C236.382,419.787,230.707,397.882,215.765,382.948z M214.17,435.411l-0.922,3.209c-60.271-14.805-109.397-60.826-128.128-120.047    l33.553-12.578c2.159-0.819,4.471-0.529,6.357,0.785c1.886,1.306,2.97,3.371,2.97,5.666v12.843    c0,18.381,10.914,34.935,27.802,42.172l26.317,11.281c6.161,2.645,11.682,6.383,16.41,11.11l5.171,5.163    C214.255,405.57,218.274,421.049,214.17,435.411z"
   id="path195" />
	</g>
</g>
<g
   id="g205">
	<g
   id="g203">
		<path
   d="M166.545,97.918c-2.671-3.294-7.356-4.122-11-1.946c-56.354,33.647-92.066,92.749-95.522,158.089    c-0.154,2.893,1.169,5.666,3.516,7.364c1.476,1.075,3.226,1.621,5.001,1.621c1.05,0,2.099-0.196,3.089-0.572l52.932-20.89    c12.681-5.077,19.226-19.191,14.908-32.145c-1.05-3.166-0.239-6.596,2.116-8.96l24.593-24.593    c8.397-8.388,13.022-19.55,13.022-31.428v-11.102C179.2,120.557,174.703,107.97,166.545,97.918z M162.133,144.45    c0,7.322-2.85,14.191-8.03,19.362l-24.593,24.593c-6.955,6.963-9.344,17.084-6.229,26.419c1.468,4.395-0.759,9.182-5.052,10.897    l-39.953,15.838c6.63-51.618,35.422-97.809,79.172-126.643c3.055,5.675,4.685,12.023,4.685,18.432V144.45z"
   id="path201" />
	</g>
</g>
<g
   id="g211">
	<g
   id="g209">
		<path
   d="M256,0.049c-8.823,0-17.724,0.452-26.453,1.348c-4.685,0.478-8.098,4.676-7.62,9.361c0.452,4.395,4.164,7.663,8.482,7.663    c0.29,0,0.589-0.017,0.879-0.051c8.149-0.828,16.461-1.254,24.713-1.254c4.71,0,8.533-3.823,8.533-8.533S260.71,0.049,256,0.049z"
   id="path207" />
	</g>
</g>
<g
   id="g217">
	<g
   id="g215">
		<path
   d="M20.429,296.207c-2.227-13.176-3.362-26.684-3.362-40.158c0-2.85,0.051-5.692,0.154-8.533    c0.162-4.71-3.524-8.653-8.235-8.823c-4.668-0.247-8.653,3.524-8.823,8.235C0.051,249.956,0,252.994,0,256.049    c0,14.421,1.212,28.894,3.593,43.008c0.708,4.164,4.318,7.108,8.405,7.108c0.478,0,0.956-0.034,1.442-0.119    C18.082,305.261,21.214,300.857,20.429,296.207z"
   id="path213" />
	</g>
</g>
<g
   id="g223">
	<g
   id="g221">
		<path
   d="M55.826,386.558c-8.91-13.637-16.436-28.22-22.367-43.35c-1.724-4.386-6.673-6.554-11.059-4.83    c-4.386,1.715-6.554,6.665-4.83,11.059c6.357,16.213,14.421,31.838,23.962,46.447c1.638,2.509,4.369,3.866,7.151,3.866    c1.604,0,3.226-0.452,4.668-1.382C57.293,395.791,58.403,390.5,55.826,386.558z"
   id="path219" />
	</g>
</g>
<g
   id="g229">
	<g
   id="g227">
		<path
   d="M36.215,141.89c-4.25-2.022-9.344-0.222-11.375,4.028c-7.518,15.744-13.423,32.316-17.553,49.246    c-1.117,4.582,1.682,9.199,6.264,10.316c0.683,0.162,1.365,0.239,2.031,0.239c3.84,0,7.33-2.62,8.286-6.511    c3.857-15.795,9.361-31.258,16.375-45.943C42.274,149.007,40.473,143.921,36.215,141.89z"
   id="path225" />
	</g>
</g>
<g
   id="g235">
	<g
   id="g233">
		<path
   d="M99.772,63.937c-3.098-3.55-8.482-3.925-12.041-0.819c-13.133,11.469-25.139,24.32-35.678,38.187    c-2.85,3.746-2.125,9.105,1.63,11.955c1.544,1.178,3.354,1.741,5.154,1.741c2.577,0,5.12-1.169,6.801-3.371    c9.839-12.953,21.052-24.951,33.315-35.652C102.503,72.88,102.87,67.487,99.772,63.937z"
   id="path231" />
	</g>
</g>
<g
   id="g241">
	<g
   id="g239">
		<path
   d="M214.366,491.381c-16.034-2.825-31.821-7.305-46.908-13.329c-4.386-1.749-9.344,0.375-11.093,4.762    c-1.749,4.369,0.384,9.335,4.762,11.085c16.171,6.46,33.092,11.264,50.278,14.285c0.495,0.085,0.99,0.128,1.485,0.128    c4.07,0,7.672-2.918,8.405-7.048C222.106,496.621,219.008,492.2,214.366,491.381z"
   id="path237" />
	</g>
</g>
<g
   id="g247">
	<g
   id="g245">
		<path
   d="M321.681,494.863c-1.092-4.591-5.709-7.407-10.274-6.332c-15.77,3.746-32.043,5.888-48.375,6.357    c-4.71,0.128-8.422,4.062-8.286,8.772c0.137,4.625,3.925,8.286,8.525,8.286c0.077,0,0.162,0,0.256-0.008    c17.493-0.503,34.927-2.79,51.823-6.801C319.932,504.045,322.765,499.445,321.681,494.863z"
   id="path243" />
	</g>
</g>
<g
   id="g253">
	<g
   id="g251">
		<path
   d="M189.039,17.593c-1.425-4.489-6.229-6.963-10.718-5.547c-16.606,5.282-32.734,12.314-47.932,20.89    c-4.105,2.321-5.547,7.526-3.234,11.631c1.57,2.773,4.463,4.335,7.441,4.335c1.417,0,2.859-0.358,4.181-1.101    c14.174-8.004,29.227-14.566,44.715-19.49C187.981,26.886,190.464,22.082,189.039,17.593z"
   id="path249" />
	</g>
</g>
<g
   id="g259">
	<g
   id="g257">
		<path
   d="M124.245,455.396c-13.551-8.969-26.24-19.379-37.726-30.933c-3.319-3.337-8.73-3.362-12.066-0.034    c-3.337,3.328-3.354,8.73-0.034,12.075c12.305,12.373,25.899,23.526,40.405,33.135c1.451,0.956,3.089,1.417,4.702,1.417    c2.765,0,5.478-1.34,7.117-3.831C129.246,463.298,128.171,457.999,124.245,455.396z"
   id="path255" />
	</g>
</g>
<g
   id="g265">
	<g
   id="g263">
		<path
   d="M391.305,463.452c-2.449-4.028-7.697-5.325-11.725-2.876c-7.014,4.25-14.336,8.175-21.76,11.682    c-4.258,2.014-6.093,7.091-4.079,11.358c1.459,3.089,4.523,4.898,7.723,4.898c1.22,0,2.458-0.265,3.644-0.819    c7.962-3.755,15.804-7.962,23.322-12.518C392.457,472.727,393.745,467.479,391.305,463.452z"
   id="path261" />
	</g>
</g>
<g
   id="g271">
	<g
   id="g269">
		<path
   d="M510.2,378.809c-2.901-3.729-8.269-4.395-11.972-1.502l-76.8,59.733c-2.074,1.621-3.294,4.105-3.294,6.741v25.6    c0,4.71,3.823,8.533,8.533,8.533c4.71,0,8.533-3.823,8.533-8.533v-21.427l73.498-57.173    C512.418,387.889,513.092,382.53,510.2,378.809z"
   id="path267" />
	</g>
</g>
<g
   id="g277">
	<g
   id="g275">
		<path
   d="M429.372,435.684l-25.6-8.533c-4.489-1.51-9.31,0.93-10.795,5.393c-1.493,4.471,0.922,9.301,5.393,10.795l25.6,8.533    c0.896,0.299,1.809,0.444,2.697,0.444c3.575,0,6.903-2.261,8.098-5.837C436.258,442.007,433.843,437.177,429.372,435.684z"
   id="path273" />
	</g>
</g>
<g
   id="g283">
	<g
   id="g281">
		<path
   d="M494.319,449.133l-17.067-42.667c-0.691-1.732-1.937-3.191-3.533-4.147l-42.667-25.6    c-4.045-2.423-9.284-1.118-11.708,2.927c-2.424,4.045-1.118,9.284,2.927,11.708l40.201,24.124l16,40.004    c1.34,3.337,4.54,5.367,7.927,5.367c1.058,0,2.133-0.196,3.166-0.623C493.944,458.477,496.068,453.51,494.319,449.133z"
   id="path279" />
	</g>
</g>
<g
   id="g285">
</g>
<g
   id="g287">
</g>
<g
   id="g289">
</g>
<g
   id="g291">
</g>
<g
   id="g293">
</g>
<g
   id="g295">
</g>
<g
   id="g297">
</g>
<g
   id="g299">
</g>
<g
   id="g301">
</g>
<g
   id="g303">
</g>
<g
   id="g305">
</g>
<g
   id="g307">
</g>
<g
   id="g309">
</g>
<g
   id="g311">
</g>
<g
   id="g313">
</g>
<path
   style="opacity:1;vector-effect:none;fill:#ffffff;fill-opacity:1;stroke:#ffffff;stroke-width:1.53404713px;stroke-linecap:butt;stroke-linejoin:miter;stroke-miterlimit:4;stroke-dasharray:none;stroke-dashoffset:0;stroke-opacity:1"
   d="m 225.17543,15.768729 c -2.51526,-2.608653 -2.45779,-9.7553926 0.0955,-11.8744231 3.09093,-2.5652419 30.47026,-4.09249151 34.51928,-1.9255236 3.76702,2.0160491 4.64557,9.4422777 1.43252,12.1088707 -3.16855,2.629662 -33.7586,4.064725 -36.04728,1.691076 z"
   id="path322"
   inkscape:connector-curvature="0" /><path
   style="opacity:1;vector-effect:none;fill:#ffffff;fill-opacity:1;stroke:#ffffff;stroke-width:1.53404713px;stroke-linecap:butt;stroke-linejoin:miter;stroke-miterlimit:4;stroke-dasharray:none;stroke-dashoffset:0;stroke-opacity:1"
   d="m 129.01727,45.188673 c -6.0218,-6.654014 0.71392,-12.561166 27.34414,-23.980493 24.95393,-10.700515 32.61302,-10.622437 31.34072,0.319492 -0.44897,3.861099 -1.97353,4.831692 -16.60186,10.569337 -8.85912,3.474797 -20.40232,8.50657 -25.65154,11.181717 -11.13965,5.677062 -12.84308,5.875063 -16.43146,1.909947 z"
   id="path324"
   inkscape:connector-curvature="0" /><path
   style="opacity:1;vector-effect:none;fill:#ffffff;fill-opacity:1;stroke:#ffffff;stroke-width:1.53404713px;stroke-linecap:butt;stroke-linejoin:miter;stroke-miterlimit:4;stroke-dasharray:none;stroke-dashoffset:0;stroke-opacity:1"
   d="m 53.285448,112.2658 c -4.009399,-4.0094 -1.832884,-9.29785 9.151463,-22.236043 19.891135,-23.429275 31.015705,-31.480476 36.256333,-26.239848 3.843246,3.843247 2.102026,10.042763 -4.3058,15.330554 C 91.006783,81.910214 82.334349,90.923369 75.115369,99.149697 61.905251,114.20317 57.730902,116.71125 53.285448,112.2658 Z"
   id="path326"
   inkscape:connector-curvature="0" /><path
   style="opacity:1;vector-effect:none;fill:#ffffff;fill-opacity:1;stroke:#ffffff;stroke-width:1.53404713px;stroke-linecap:butt;stroke-linejoin:miter;stroke-miterlimit:4;stroke-dasharray:none;stroke-dashoffset:0;stroke-opacity:1"
   d="m 10.332127,202.77458 c -1.012471,-1.01247 -1.8408565,-3.70104 -1.8408565,-5.9746 0,-9.05457 14.9205435,-49.59094 19.5680985,-53.16292 3.870895,-2.97505 7.736653,-2.27983 10.46344,1.88178 2.371844,3.61989 2.233224,4.39876 -2.934965,16.49101 -2.983411,6.98042 -6.985781,18.21424 -8.894156,24.96405 -1.908374,6.7498 -4.475483,13.48044 -5.704687,14.95696 -2.577633,3.09625 -7.976877,3.52372 -10.656874,0.84372 z"
   id="path328"
   inkscape:connector-curvature="0" /><path
   style="opacity:1;vector-effect:none;fill:#ffffff;fill-opacity:1;stroke:#ffffff;stroke-width:1.53404713px;stroke-linecap:butt;stroke-linejoin:miter;stroke-miterlimit:4;stroke-dasharray:none;stroke-dashoffset:0;stroke-opacity:1"
   d="m 7.8649712,303.85408 c -3.6938895,-2.70104 -5.2850483,-11.63723 -6.483398,-36.41176 -1.14263702,-23.62273 -0.1495756,-27.5438 6.9758349,-27.5438 2.3981829,0 5.0423589,0.86291 5.8759499,1.91756 0.833589,1.05466 1.953101,10.54658 2.487803,21.09315 0.534701,10.54658 1.401649,23.35698 1.92655,28.46757 0.776145,7.55676 0.469413,9.77694 -1.642517,11.88887 -3.119259,3.11926 -5.471952,3.27072 -9.1402228,0.58841 z"
   id="path330"
   inkscape:connector-curvature="0" /><path
   style="opacity:1;vector-effect:none;fill:#ffffff;fill-opacity:1;stroke:#ffffff;stroke-width:1.53404713px;stroke-linecap:butt;stroke-linejoin:miter;stroke-miterlimit:4;stroke-dasharray:none;stroke-dashoffset:0;stroke-opacity:1"
   d="m 45.075364,397.86672 c -5.219118,-3.04693 -27.37981,-45.27116 -27.37981,-52.16856 0,-4.34518 6.651533,-8.27376 10.511124,-6.20817 1.675645,0.89678 6.593649,9.05712 10.928897,18.13409 4.335248,9.07696 9.913767,19.67045 12.396713,23.54109 5.213243,8.12686 5.652062,12.16707 1.70907,15.73543 -3.193691,2.89025 -4.587633,3.05517 -8.165994,0.96612 z"
   id="path332"
   inkscape:connector-curvature="0" /><path
   style="opacity:1;vector-effect:none;fill:#ffffff;fill-opacity:1;stroke:#ffffff;stroke-width:1.53404713px;stroke-linecap:butt;stroke-linejoin:miter;stroke-miterlimit:4;stroke-dasharray:none;stroke-dashoffset:0;stroke-opacity:1"
   d="M 105.17266,461.69823 C 86.394015,447.74847 72.921252,434.93617 72.921252,431.02785 c 0,-3.71006 4.293583,-8.57771 7.566093,-8.57771 1.075439,0 7.323636,4.7382 13.88488,10.52933 6.561245,5.79113 16.499545,13.79042 22.085105,17.7762 8.24053,5.88032 10.15557,8.03145 10.15557,11.40754 0,10.37346 -7.05593,10.22043 -21.44024,-0.46498 z"
   id="path334"
   inkscape:connector-curvature="0" /><path
   style="opacity:1;vector-effect:none;fill:#ffffff;fill-opacity:1;stroke:#ffffff;stroke-width:1.53404713px;stroke-linecap:butt;stroke-linejoin:miter;stroke-miterlimit:4;stroke-dasharray:none;stroke-dashoffset:0;stroke-opacity:1"
   d="m 191.80991,503.06904 c -27.73239,-7.23688 -36.78802,-12.26877 -34.9219,-19.40484 1.60798,-6.14889 5.87525,-6.51899 19.29948,-1.67384 6.90488,2.49215 18.07689,5.7237 24.8267,7.18123 14.47197,3.12501 19.17559,5.69481 19.17559,10.47649 0,8.1767 -6.94661,9.01406 -28.37987,3.42096 z"
   id="path336"
   inkscape:connector-curvature="0" /><path
   style="opacity:1;vector-effect:none;fill:#ffffff;fill-opacity:1;stroke:#ffffff;stroke-width:1.53404713px;stroke-linecap:butt;stroke-linejoin:miter;stroke-miterlimit:4;stroke-dasharray:none;stroke-dashoffset:0;stroke-opacity:1"
   d="m 258.14772,508.76981 c -3.16068,-3.49251 -3.39058,-6.54372 -0.7573,-10.05051 1.44116,-1.91921 6.21606,-2.953 19.21935,-4.16108 9.51599,-0.88409 21.91498,-2.57444 27.55331,-3.75633 11.04351,-2.31492 14.85285,-1.46264 16.48788,3.68889 1.17887,3.7143 -1.36491,8.77589 -4.96512,9.87952 -5.62076,1.72302 -29.29591,5.29103 -41.81414,6.30168 -11.71525,0.94582 -13.32255,0.75138 -15.72398,-1.90217 z"
   id="path338"
   inkscape:connector-curvature="0" /><path
   style="opacity:1;vector-effect:none;fill:#ffffff;fill-opacity:1;stroke:#ffffff;stroke-width:1.53404713px;stroke-linecap:butt;stroke-linejoin:miter;stroke-miterlimit:4;stroke-dasharray:none;stroke-dashoffset:0;stroke-opacity:1"
   d="m 356.97373,485.96476 c -2.43291,-1.70407 -3.35366,-3.67551 -3.02592,-6.47887 0.38489,-3.29214 2.85713,-5.3579 13.5105,-11.2892 14.89686,-8.29387 20.70485,-9.23368 23.20142,-3.7543 2.65091,5.81813 -0.39169,9.16624 -15.35108,16.89246 -7.53877,3.89362 -13.96135,7.07932 -14.27238,7.07932 -0.31104,0 -2.13918,-1.10223 -4.06254,-2.44941 z"
   id="path340"
   inkscape:connector-curvature="0" /><path
   style="opacity:1;vector-effect:none;fill:#ffffff;fill-opacity:1;stroke:#ffffff;stroke-width:1.53404713px;stroke-linecap:butt;stroke-linejoin:miter;stroke-miterlimit:4;stroke-dasharray:none;stroke-dashoffset:0;stroke-opacity:1"
   d="m 421.96971,475.60302 c -2.22312,-1.62559 -2.98811,-4.72207 -3.54554,-14.35138 l -0.7108,-12.27855 -8.63652,-2.66833 c -4.75009,-1.46759 -10.18975,-3.6544 -12.08813,-4.85958 -4.24856,-2.6972 -4.48531,-8.37976 -0.4994,-11.98696 2.81649,-2.54888 3.54289,-2.47935 15.79982,1.51229 l 12.8476,4.18399 15.56677,-12.08942 c 9.85697,-7.6551 14.89327,-12.49293 13.73059,-13.18951 -32.43031,-19.42957 -34.05582,-20.5962 -34.54552,-24.79327 -0.60049,-5.14655 2.03657,-8.6716 6.43487,-8.60173 1.79507,0.0285 12.21381,5.48138 23.15274,12.11748 l 19.88897,12.06564 15.64778,-12.11748 c 8.60628,-6.66462 17.07094,-12.11749 18.81036,-12.11749 1.73941,0 4.29336,1.72581 5.67544,3.83512 2.24685,3.42913 2.27007,4.20568 0.21933,7.3355 -1.26145,1.9252 -8.58921,8.30164 -16.28393,14.16986 -7.69471,5.86822 -13.99039,11.07048 -13.99039,11.56059 0,0.49011 3.41816,9.34379 7.5959,19.67484 8.09367,20.0147 8.40009,24.93106 1.66364,26.69268 -5.3007,1.38617 -10.008,-4.62408 -16.25646,-20.75616 -3.18632,-8.22633 -6.19453,-14.95471 -6.68492,-14.95195 -0.49038,0.003 -7.62224,5.19843 -15.84857,11.54594 l -14.95696,11.54093 v 12.23179 c 0,10.18639 -0.51304,12.74483 -3.06809,15.29988 -3.59829,3.59829 -6.02564,3.84186 -9.91858,0.99528 z"
   id="path342"
   inkscape:connector-curvature="0" /><path
   style="opacity:1;vector-effect:none;fill:#ffffff;fill-opacity:1;stroke:#ffffff;stroke-width:1.53404713px;stroke-linecap:butt;stroke-linejoin:miter;stroke-miterlimit:4;stroke-dasharray:none;stroke-dashoffset:0;stroke-opacity:1"
   d="M 238.96943,459.16047 C 167.04614,453.46428 102.4737,406.24609 75.253804,339.44444 45.407675,266.19762 61.767153,183.00435 116.98031,127.25157 c 15.55136,-15.70334 28.71791,-25.36501 48.27077,-35.421294 30.23563,-15.550571 57.29023,-22.205983 90.22179,-22.194498 28.55963,0.01 47.99973,3.662186 73.69568,13.84525 26.77311,10.609941 48.51624,25.402752 68.73762,46.765242 40.15399,42.41992 59.18507,99.41935 52.23274,156.44069 -12.86665,105.52903 -105.11454,180.87286 -211.16948,172.47351 z m 61.06838,-20.26202 c 71.43953,-18.74368 124.41482,-77.88277 134.14788,-149.75634 l 1.12172,-8.28318 -4.40821,3.13893 c -13.5794,9.66937 -29.06415,6.69103 -38.37686,-7.38141 -2.24239,-3.3885 -4.57188,-5.61527 -5.17664,-4.94841 -1.75971,1.94044 -11.90611,50.79062 -12.99699,62.57439 -1.93551,20.90759 -6.50489,33.74495 -15.60383,43.83783 -7.87002,8.72971 -18.71047,13.65477 -30.09744,13.67395 -10.72331,0.0181 -16.54614,-2.72237 -20.96035,-9.86469 -4.78998,-7.75038 -6.19022,-13.3387 -8.23079,-32.84911 l -1.82164,-17.41699 -6.8827,-2.32658 c -8.7049,-2.94256 -18.78622,-9.83691 -22.96462,-15.70493 -1.7764,-2.49471 -9.58837,-9.3259 -17.35994,-15.18042 -7.77156,-5.85451 -15.61043,-12.26819 -17.4197,-14.25264 -4.41944,-4.84731 -16.93498,-30.13919 -18.16263,-36.70373 -2.35579,-12.59695 14.20946,-64.20624 23.19057,-72.25057 8.74323,-7.83125 18.86987,-4.06443 27.15655,10.10144 3.24066,5.53982 7.07401,10.12726 8.85079,10.5919 4.33809,1.13444 8.37487,-3.36456 9.53639,-10.62831 1.22235,-7.64408 8.36068,-18.94624 15.31778,-24.25267 2.96768,-2.26356 11.11102,-6.48998 18.0963,-9.39203 6.9853,-2.90206 13.37258,-5.94852 14.19399,-6.76991 0.82139,-0.8214 1.80134,-5.20627 2.17765,-9.74415 0.74386,-8.97013 -4.36263,-32.60223 -7.72198,-35.736074 -3.04095,-2.836834 -25.24234,-9.526161 -40.07376,-12.074306 -25.0351,-4.301215 -57.81598,-2.257033 -81.48706,5.08145 -9.09535,2.819726 -32.98202,12.40543 -32.98202,13.23565 0,0.23588 1.54023,3.79565 3.42273,7.9106 2.87198,6.27786 3.42737,10.19697 3.4516,24.35625 0.0388,22.67217 -2.02871,26.98917 -23.22947,48.50354 l -16.30015,16.54129 0.95965,8.16517 c 2.29058,19.48925 -3.04516,24.97948 -37.71999,38.81212 l -25.695294,10.2505 v 7.26838 c 0,9.04345 3.04095,32.71379 4.378361,34.08055 0.544943,0.5569 9.274659,-2.09182 19.39937,-5.88602 20.335513,-7.62069 26.173273,-7.97034 34.467373,-2.06441 7.27349,5.17919 9.65496,11.38362 10.65617,27.76254 0.75616,12.37025 1.52982,15.64294 4.90194,20.73604 4.36981,6.59994 6.6438,7.96753 30.42973,18.30047 30.07316,13.06421 45.75158,29.60359 50.67502,53.45777 1.65178,8.00294 1.29921,18.24197 -0.88737,25.77108 -1.11128,3.82642 2.18499,4.22857 30.06507,3.66799 20.98032,-0.42184 27.81891,-1.16673 39.9628,-4.35295 z m -85.16717,-2.79951 c 0.5631,-1.77416 1.02381,-7.18086 1.02381,-12.0149 0,-12.72577 -4.75369,-22.55117 -16.17444,-33.43102 -7.90229,-7.52803 -12.74349,-10.44761 -29.65316,-17.88288 -11.11496,-4.8873 -22.98092,-11.25866 -26.36882,-14.15858 -9.65689,-8.26593 -14.07831,-18.97357 -15.13278,-36.64803 -1.18308,-19.83008 -1.5424,-19.98956 -24.97177,-11.08272 -20.856991,7.9289 -20.601859,7.26676 -10.832572,28.11386 21.300272,45.45361 58.959092,79.342 106.485622,95.82421 15.22882,5.28138 14.37632,5.21153 15.62411,1.28006 z m 127.77367,-63.81569 c 9.52539,-7.05487 13.34747,-16.32959 15.67649,-38.04082 2.10597,-19.632 14.79558,-75.90572 18.16104,-80.53748 3.01477,-4.14912 11.84536,-5.95322 16.47039,-3.36492 1.39486,0.7806 5.42574,6.17155 8.9575,11.9799 5.58081,9.1782 7.07333,10.62456 11.40177,11.04914 3.90657,0.38321 6.82317,-0.90277 13.52732,-5.96445 l 8.54693,-6.453 -0.94229,-13.27499 c -2.86308,-40.33534 -23.89604,-83.42646 -55.26511,-113.22402 -9.93478,-9.43706 -31.50908,-25.61301 -32.64533,-24.47676 -0.21001,0.21 0.25388,3.12373 1.03085,6.47495 2.36905,10.21811 1.70857,25.40403 -1.39926,32.17192 -3.80925,8.29536 -6.50061,10.3914 -21.42313,16.68438 -7.0416,2.96951 -14.45369,6.48073 -16.47128,7.80271 -3.95662,2.59247 -9.84401,12.85161 -9.84401,17.15376 0,1.45468 -1.42214,5.58261 -3.16031,9.17318 -5.68691,11.74759 -20.78954,15.91942 -31.84401,8.79633 -1.95599,-1.26037 -6.23468,-6.52752 -9.50818,-11.70478 l -5.95183,-9.4132 -3.28184,7.59963 c -6.59624,15.27463 -10.62182,27.08327 -12.92952,37.92746 l -2.36033,11.09145 8.05569,16.1075 c 7.50723,15.01083 8.72936,16.57369 17.9502,22.95493 5.44197,3.76608 15.54252,12.16752 22.44564,18.66984 12.24251,11.5317 18.82466,15.104 27.87121,15.12641 1.89838,0.005 4.83225,1.38921 6.5197,3.07666 2.69936,2.69935 3.0725,5.14229 3.1047,20.32612 0.0399,18.80897 1.32077,26.69103 5.33239,32.81355 2.36368,3.60742 3.32436,3.91211 10.23934,3.24767 4.197,-0.40327 9.47788,-2.10116 11.73527,-3.77307 z M 101.2966,233.22539 c 22.12273,-8.94747 24.32645,-11.00636 22.12134,-20.66738 -2.45615,-10.76085 0.51135,-16.46518 17.69858,-34.02137 20.38651,-20.82415 21.58467,-23.09962 21.40577,-40.65225 -0.0833,-8.17295 -1.02862,-15.90053 -2.31677,-18.93861 l -2.17605,-5.13219 -9.18859,6.78167 c -30.79523,22.72856 -56.596267,60.51022 -65.758041,96.29256 -5.259572,20.54184 -5.851047,24.55879 -3.603535,24.47311 1.033564,-0.0394 10.851346,-3.7004 21.817296,-8.13554 z"
   id="path344"
   inkscape:connector-curvature="0" /></svg>